<?xml version="1.0" encoding="UTF-8"?>
<svg id="Capa_1" data-name="Capa 1" xmlns="http://www.w3.org/2000/svg" viewBox="0 0 1920 544">
  <defs>
    <style>
      .cls-1 {
        fill: #040404;
      }

      .cls-2 {
        fill: #fafbfa;
      }
    </style>
  </defs>
  <g>
    <path class="cls-1" d="M646,110c2.79,11.08-1.28,22.33-.05,33.55.87,7.93,5.37-2.62,7.63-5.47,44.02-55.68,129.76-35.18,140.15,37.69,6.51,45.68-2.27,100.11,1.32,146.78.71,5.39-8.42,2.79-11.86,1.77-10.52-3.1-18.46-13.27-19.92-24.08-4.89-36.12,5.07-82.79-1.52-118.48-12.91-69.89-109.88-56.56-114.73,16.75-2.24,33.79,1.85,69.74-.25,103.75-4.04,14.32-15.37,24.29-30.77,22.74V110h30.01Z"/>
    <path class="cls-1" d="M862.56,158.55c-54.77,58.53-3.87,168.13,79.96,139.47,18.48-6.32,29.85-19.33,38.86-36.14,1.51-2.82,3.37-10.59,6.14-10.94,1.7-.22,24.36,7.4,27.21,8.82.99.49,1.55-.26,1.27,1.69-.88,6.07-10.61,22.12-14.58,27.47-24.68,33.19-70.42,47.65-110.42,38.6-93.66-21.2-110.16-147.4-35.31-201.33,50.84-36.63,130.45-19.7,155.17,39.46,3.7,8.87,5.99,11.45-5.37,12.34-27.08,2.1-30.81-19.57-49.57-31.4-30.66-19.34-68.74-14.34-93.36,11.97Z"/>
    <g>
      <path class="cls-1" d="M1087,179c-.13.19-.85,4.13-3.02,2.56-.54-.39-5.86-9.06-5.97-10.14-.34-3.4,2.29-7.14,2-9.91-.25-2.34-3.19-2.81-3.03-5.91.18-3.3,11.33-19.54,14.04-23.08,7.92-10.36,18.91-20.92,29.67-28.33,2.23-1.54,9.78-7.11,11.81-7.12,4.01-.02,5.79,6.28,10.5,4.93.81-3.24-2.12-1.19-3.08-2.58-4.12-5.93,4.23-12.33,11.35-8.42,2.17,1.19,1.79,7.46,9.74,5.01,1.34,5.11-5.37,3.19-4.99,6.99,2.72-.41,6.98.71,9.38-.13,1.49-.52,1.36-2.92,2.17-2.93,2.65-.02,9.04,5.79,12.44,6.09-.63,3.16-4.23,8.89-8.02,6.52-2.27-1.42-.31-5.09-4.37-4.52-1.22.17-14.64,8.23-15.09,8.98-.82,1.36-.93,4.84-.07,6.06,1.46,2.07,14.74-.82,11.57,9.93,3.1.67,3.78-4.37,5.65-4.9,1.51-.43,4.43,1.51,5.32.89,1.23-.86.02-10.36,4.72-11.8,1.46-.45,9.84.43,10.25.86.49.51-.22,4.63.06,5.95,2.57.55,6.76-2.45,8.5,0,.53.74,3.43,9.55,3.38,10.55-.09,1.88-1.99,3.45-1.74,4.8.21,1.14,6.74,6.32,2.26,7.6-7.16,2.05-6.01-6.55-6.41-6.96-.15-.15-3.03.15-4.24-.23-3.17-1-8.73-5.28-9.76-.27,2.36.97,5.69,4.56,2.87,6.39-1.71,1.11-6.47-2.3-12.12,1.15-3.98,2.43-7.49,3.51-10.71,5.5-3.46,2.15-5.87,7.04-8.54,9.46-5.94,5.36-15.02,4.94-12.5,16-5.69.95-3.94-7.4-8.71-8.78-4.21-1.22-18.17-.94-21.3,2.56-2.7,3.02-7.12,12.62-4.46,16.2,4.89,6.58,8.72.03,13.21-.79,8.44-1.55.69,7.3,2.25,8.82.23.23,4.19-.63,5.55,2.01,1.72,3.34-3.56,8.68,2.07,11.88,8.98,5.1,13.62-4.06,18.73-3.61,3,.26,5.49,4,7.36,4.53,2.97.84,6.33-.59,9.27.73s4.12,6.13,6.07,7.93c2.49,2.31,8.79,2.79,10.02,4.22,3.46,4.04-.08,9.39,1.07,11.19.21.32,6.13,3.72,6.59,3.9,4.44,1.79,12.74,1.6,16.49,3.3.63.29,6.39,5.91,6.61,6.65,1.62,5.55-4.82,8.82-6.55,13.05-2.07,5.06-.91,12.11-5.26,16.74-4.06,4.33-8.77,1.03-12.58,3.42-4.17,2.62-1.35,7.46-2.96,11.04-.35.78-5.87,6.15-6.98,7.06-.96.78-2.91.72-3.28,1.18-.55.67-.08,2.83-1.13,4.36-1.73,2.52-11.14,3.73-12.17,5.05-2.04,2.6,1.11,4.33.94,5.71-.16,1.26-3.42,3.42-2.94,6.05.17.92,2.49.84,2.99,2.25.87,2.49-1.4,5.25-.76,7.65.57,2.14,4.9,3.35,3.86,6.72-10.74,1.06-17.67-11.42-18.91-20.58-2.03-15.07.46-30.06.91-44.93.41-13.52-5.4-9.59-11.02-16.24-3.07-3.63-6.07-12.84-9.81-16.99-.33-1.65.86-10.46,1.49-12.04.91-2.29,7.36-2.33,8.14-8.97.73-6.23-6.61-4.65-11.13-7.42s-8.14-9.6-13.17-12.83c-8.42-5.41-15-2.32-20.49-13.01-.11-1.67.99-1.16,1-2,0-.54.09-1.92,0-2,.04-2.37-1.11-1.36-2-3-.03-.33.03-.67,0-1-.45-4.88-1.26-2.26-2-3-.14-.14.11-.66,0-1-.63-1.97-1.96-11.39-2.02-12-.15-1.49-3.12-.91-2.97,0v9c.19.91,1.56-.76,2,0-.43,2.26.32,3.96,1,6,.24.72.11,1.55,1,2Z"/>
      <path class="cls-1" d="M1317.73,229.73l-36.16,25.35c-2.87,2.97-6.13-2.19-6.34-4.75-.29-3.44,7.24-9.92-.26-14.8-.8-.52-9.93-4.47-10.5-4.51-6.94-.52-14.43,6.06-22.39.4-3-2.13-11.06-13.84-11.65-17.39-1.04-6.19,2.66-8.63,2.54-11.55-.06-1.36-1.49-2.25-1.77-3.27-1.77-6.48,13.13-11.9,16.35-15.17,1.53-1.56,1.59-3.98,3.37-5.63,3.62-3.35,27.99-4.62,32.39-2.22,3.09,1.69.8,4.78,2.15,6.85.62.95,3.52,1.3,4.88,2.12s5.92,4.68,6.31,4.75c3.2.59,2.86-7.87,10.4-5.47.52.17,9.1,5.13,9.51,5.5,4.26,3.79,2.61,33.15,1.17,39.78Z"/>
      <path class="cls-1" d="M1253.65,78.35c1.56,1.61,8.86,12.11,7.35,13.64-7.54-2.1-13.98-5.92-21.79-7.7s-16.89-2.5-25.2-2.29c.38,2,2.11,1.64,3.5,1.99,12.57,3.2,23.53,3.93,35.17,10.83,5.13,3.04,6.91,2.9,2.85,8.19-23.94,31.19-60.52,5.24-84.43-10.6-2.26-1.5-17.08-10.88-17.1-11.93-.03-2.11,3.48-3.87,5.09-4.91,25.43-16.42,72.06-20.52,94.56,2.77Z"/>
      <path class="cls-1" d="M1122,323.99c-28.85-2.46-56-24.51-66.18-51.31-2.56-6.73-7.17-29.8.69-33.67,1.85-.91,1.47,1.44,1.75,2.2,2.88,7.92,5.24,15.07,9.57,22.46,1.16,1.97,8.56,12.85,9.68,13.32,1.75.73,1.74-.63,1.07-2.08-5.75-12.5-14.45-24.47-14.59-38.92,24.89.02,41.71,9.47,48.52,33.99,4.77,17.19,5.81,36.49,9.48,54.01Z"/>
      <path class="cls-1" d="M1326.99,235c5.63,26.88.01,57.17-18.47,78.01-8.92,10.06-20.3,18.54-34.51,16.98-.51-1.97.81-1.93,1.68-2.81,10.77-10.92,23.46-23.11,25.31-39.18-6.76,8.64-11.69,18.76-19.34,26.65-2.1,2.17-10.46,9.87-13.05,9.43-2.4-.41-6.58-18.24-6.66-21.55-.68-29.63,36.79-51.96,59.74-65.35.98-.57,4.57-2.7,5.31-2.18Z"/>
      <path class="cls-1" d="M1312,169c-3.66-.98-2.71,1.71-3,2-.13.13-1.87-.46-2.07.64s.8,3.06,1.07,4.36l-1,3c-4.14.59-4.71-7.19-6.34-10.16-.98-1.79-6.67-8.02-8.31-8.69-1.18-.48-3.08-.46-2.34,1.33.87,2.11,7.97,6.49,7.8,9.84-.2,3.92-4.79,7.42-8.35,4.74-4.41-3.33,3.08-4.05,2.52-6.51-.13-.55-6.94-8.23-7.67-8.39-.67-.15-8.48.99-9.29,1.35-2.63,1.16-4.44,7.17-7.03,8.97-4.86,3.38-14.62,1.25-14.84-4.93-.33-9.4,7.26-6.08,13.86-6.55.33-3.55-2.53-6.13.45-9.05,2.62-2.56,6.2-1.32,7.39-2.1.74-.48.77-5.18,3.14-6.37,2.17-1.08,15.68,1.04,11.56-4.53-.97-1.31-7.73-.22-9.37-6.72-.65-2.59,1.83-6.27,4.32-6.27,3.35,0,15.2,17.19,17.3,20.73,4.47,7.51,7.37,15.13,10.19,23.31Z"/>
      <path class="cls-1" d="M1264,137c-1.62-2.06,1.39-8.33,4.92-5.91.38.26,1.26,5.24,1.86,6.63.67,1.54,2.86,2.87,3.06,3.92.94,5.03-8.83,9.62-11.43,5.36-1.77-2.9,5.2-4.75-7.41-3.01-2.13-4.73,6.79-8.73,9-6.99.16.12-.13,4.12,1.99,1.99s-1.87-1.84-1.99-1.99ZM1264.5,142v1c.65-.33.65-.67,0-1Z"/>
      <path class="cls-1" d="M1200.96,116.05c1.42,2.15-1.29,4.66-4.26,3.79-.78-.23-8.95-6.73-7.69-7.84,1.68-.57,11.6,3.52,11.95,4.05Z"/>
      <path d="M1312,169c.39,1.12,4.98,7.34,1.49,7.99-1.31.14-3.02-1.55-3.26-2.62-.35-1.58,2.54-3.9-1.23-3.37.29-.29-.66-2.98,3-2Z"/>
      <path d="M1307,179l1-3c.03.12,1.14.55.97,1.36-.48.76-.99,1.5-1.97,1.64Z"/>
      <path class="cls-2" d="M1264.5,142c.65.33.65.67,0,1v-1Z"/>
    </g>
    <g>
      <path class="cls-1" d="M1553,226c1.89,39.45,32.37,76.6,73.5,77.8,26.93.78,58.17-.85,76.92-22.85,2.07-2.43,9.37-14.83,10.26-15.01,2.19-.46,23.81,9.94,25.33,11.57,2.05,2.18.26,3.98-.85,6.18-22.95,45.75-88.03,56.57-133.39,45.04-95.35-24.24-113.37-150.87-35.69-207.13,41.62-30.15,117.99-26.95,152.47,12.82,22.87,26.38,27.11,57.47,25.44,91.59h-194ZM1714,199c.57-53.46-51.21-77.5-98.84-67.34-32.37,6.9-56.76,34.95-61.16,67.34h160Z"/>
      <path class="cls-1" d="M1490,107v33h-27.5c-7.15,0-22.39,8.28-27.97,13.03-36.75,31.26-21.5,97.41-24.49,140.51-1.3,18.76-11.52,32.37-31.4,32.32l-1.64-215.86h32v40c2.63.53,1.56-.54,2.1-1.44,1.76-2.94,3.05-6.04,5.09-8.87,16.8-23.38,44.56-37.89,73.82-32.68Z"/>
    </g>
    <g>
      <path class="cls-1" d="M340,149c2.96,6.16,6.87,11.09,8.53,17.97,12.99,53.72-37.86,85.06-85.75,70.75-7.16-2.14-11.29-8.41-15.99.58-9.68,18.53,6.49,24.88,21.72,26.69,31.26,3.71,84.87-6.45,95.19,35.81,17.36,71.08-90.95,81.16-134.21,57.21-25.45-14.09-25.41-46.62-6.49-66.5,1.41-1.49,9.84-7.44,10.03-8.06.84-2.75-4.23-4.26-6.05-5.94-20.05-18.54-10.1-41.32,5.05-59.01-5.71-8.15-10.15-16.27-11.79-26.25-8.16-49.65,33.78-76.55,79.13-71.13,9.04,1.08,11.52,1.81,21.07,1.83,8.61.02,37.22-1.43,43.12.97,6.52,2.64,6.96,17.25,3.47,22.36-.25.36-3.32,2.71-3.54,2.71h-23.5ZM280.79,144.3c-40.25,3.86-42.79,69.53-.33,72.74,28.29,2.14,42.46-16.19,39.43-43.43-2.29-20.62-19.29-31.21-39.1-29.31ZM260.77,289.18c-18.64,11.06-32.26,39.28-6.65,51.21,21.44,9.99,80.07,8.48,80.95-23.88.96-35.16-52.49-22.97-74.3-27.33Z"/>
      <path class="cls-1" d="M574,56c-.32.98,1,2.17,1,2.5v23c0,.11-1.39,1.5-1.5,1.5h-133.5v88.5c0,.11,1.39,1.5,1.5,1.5h104.5c.94,9.31-3.6,18.2-11.69,22.81-1.1.63-6.19,3.19-6.81,3.19h-86c-.11,0-1.5,1.39-1.5,1.5v92c0,.11,1.39,1.5,1.5,1.5h133.5v26h-162.5c-.19,0-1.29-1.13-1.39-1.58-.16-.72,1.04-10.15.93-12.96-2.61-70.54-1.51-142.68,0-212.92.2-9.5-1.57-25.68-.04-34.04.15-.83.8-2.5,1.5-2.5h160.5Z"/>
      <path class="cls-1" d="M147.81,56.29c5.83-.32,18.28.07,19.24,7.16l-.03,232.07c.3,10.28-25.34,8.74-30,4.97-2.34-1.89-2.83-7.75-3.05-10.95-3.46-48.78.47-105.71,1.04-155.04.06-4.9-.03-9.96.04-14.96.24-16.73-2.15-40.49-.09-56.09.81-6.14,7.75-6.88,12.86-7.16Z"/>
    </g>
  </g>
  <path d="M1809,451.31c-126.13-27.08-372.11-48.58-530.99-43.89-407.77,12.04-515.89,35.38-785.27,33.19-222.61-1.81-382.12-37.72-418.3-42.22-.9-.11-.64,12.2-.64,26.02,0,14.88.53,30.65.56,30.65,4.57,0,182.27,18.35,390.65,24.08,174.1,4.78,299.91-10.17,393-15.35,127-7.06,264.88-24.59,461.28-30.04,150.84-4.18,315.2,4.34,489.72,17.56Z"/>
  <polyline points="1264.41 141.84 1265.39 142.39 1264.5 143.07"/>
</svg>